<?xml version="1.0" encoding="UTF-8" standalone="no"?>
<!-- Created with Inkscape (http://www.inkscape.org/) -->

<svg
   xmlns:dc="http://purl.org/dc/elements/1.1/"
   xmlns:cc="http://creativecommons.org/ns#"
   xmlns:rdf="http://www.w3.org/1999/02/22-rdf-syntax-ns#"
   xmlns:svg="http://www.w3.org/2000/svg"
   xmlns="http://www.w3.org/2000/svg"
   version="1.1"
   x="0px"
   y="0px"
   width="174.635px" 
   height="47.781px"
   viewBox="100 0 174.635 97.781"
   enable-background="new 0 0 174.635 47.781"
   xml:space="preserve"
   id="svg6676">
  <defs
     id="defs6678">
    <clipPath
       id="clipPath5045">
      <path
         d="m 314,697.732 270.312,0 0,72.268 -270.312,0 0,-72.268 z"
         id="path5047" />
    </clipPath>
  </defs>
  <metadata
     id="metadata6681">
    <rdf:RDF>
      <cc:Work
         rdf:about="">
        <dc:format>image/svg+xml</dc:format>
        <dc:type
           rdf:resource="http://purl.org/dc/dcmitype/StillImage" />
        <dc:title></dc:title>
      </cc:Work>
    </rdf:RDF>
  </metadata>
  <g
     transform="translate(-225,-492.25977)"
     id="layer1">
    <g
       transform="matrix(1.1098303,0,0,-1.1098303,-123.48716,1346.8291)"
       id="g5041">
      <g
         clip-path="url(#clipPath5045)"
         id="g5043">
        <g
           transform="translate(436.52,749.8132)"
           id="g5049">
          <path
             d="m 0,0 c -1.215,-0.236 -2.633,-0.371 -3.68,-0.877 -0.506,0 -1.215,-0.54 -1.046,-1.249 2.093,-2.802 5.266,-4.558 8.439,-5.604 0,2.802 0.338,5.435 0.338,8.237 C 3.477,0.54 2.194,0.405 0,0 m 14.346,-12.625 c -2.227,0 -4.455,0.304 -6.616,0.844 -0.168,-0.709 -0.033,-1.755 -0.878,-2.093 -0.404,0 -0.81,-0.067 -1.215,-0.067 -0.236,0 -0.472,0 -0.709,0.067 -0.877,0.911 -0.877,2.33 -1.046,3.511 -3.207,1.519 -8.136,4.928 -9.655,8.237 -0.033,0.101 -0.067,0.438 -0.067,0.54 0,1.789 3.106,3.375 4.625,3.848 C -0.54,2.465 3.611,3.747 4.051,3.68 4.355,6.11 4.185,9.081 5.468,11.242 6.616,10.904 7.325,9.553 7.393,8.406 7.46,7.022 7.494,5.604 7.562,4.219 L 7.899,4.018 c 0.574,0.033 1.182,0.033 1.756,0.033 3.004,0 10.599,-0.979 10.599,-5.063 0,-1.384 -1.417,-2.397 -2.497,-3.039 -1.621,-0.405 -1.452,0.135 -2.127,0.371 l -0.034,0.17 c 0,0.742 1.89,1.181 1.789,2.261 -2.025,1.452 -6.819,1.992 -9.25,1.992 -0.236,0 -0.405,-0.068 -0.573,-0.236 0,-3.14 0,-6.313 0.168,-9.452 1.722,-0.338 3.477,-0.54 5.199,-0.54 5.131,0 12.996,2.025 12.996,8.371 0,0.912 -0.134,1.857 -0.472,2.701 -2.734,7.088 -10.025,10.87 -16.676,13.502 -4.085,1.621 -8.474,2.532 -12.895,2.532 -1.081,0 -5.638,-0.135 -6.212,-0.945 0.439,-0.27 1.958,-0.168 1.958,-0.844 0,-0.338 -0.675,-0.472 -0.911,-0.574 -1.013,0.135 -2.228,-0.236 -2.802,0.878 0.034,1.316 0.844,2.363 2.093,2.802 2.633,0.911 5.637,1.249 8.439,1.249 8.338,0 16.305,-3.477 22.99,-8.27 3.813,-2.735 8.472,-8.17 8.472,-13.132 0,-8 -8.743,-11.41 -15.563,-11.41"
             id="path5051"
             style="fill:#ff0100;fill-opacity:1;fill-rule:nonzero;stroke:none" />
        </g>
        <g
           transform="translate(476.0152,763.6541)"
           id="g5053">
          <path
             d="m 0,0 c -2.633,0 -5.199,-2.836 -6.414,-4.929 0.338,-0.033 0.709,-0.067 1.047,-0.067 l 3.139,0.573 c 1.485,0.541 3.376,1.824 3.376,3.579 C 1.148,-0.169 0.574,0 0,0 m -4.321,-23.9 c -0.405,-0.371 -0.979,-0.574 -1.553,-0.574 -1.823,0 -1.789,2.025 -1.789,3.376 0,2.396 -0.068,8.067 0.54,10.194 0.101,0.372 0.439,0.878 0.878,0.878 1.012,0 1.283,-1.283 1.384,-2.093 0.438,-3.106 0.574,-6.448 0.574,-9.587 0,-0.743 0,-1.452 -0.034,-2.194 m -4.928,20.794 c 0,-0.236 0.033,-0.439 0.202,-0.608 1.08,1.486 2.397,2.768 3.68,4.052 -1.014,0 -2.127,-0.676 -2.803,-1.419 -0.471,-0.438 -1.079,-1.384 -1.079,-2.025 m 6.448,6.347 c 1.552,0 2.294,-0.236 3.206,-1.519 0.102,0.033 0.202,0.033 0.304,0.033 0.54,0 0.979,-0.371 1.451,-0.54 0.574,-0.473 0.845,-1.013 0.81,-1.823 0.641,-3.848 -3.308,-5.705 -4.085,-5.975 -1.417,-0.506 -2.801,-1.013 -4.252,-1.013 -0.912,0 -1.79,0.169 -2.633,0.372 -0.27,-0.304 -0.541,-1.215 -1.047,-1.215 -0.608,0 -0.844,0.573 -1.08,1.046 l 0,1.586 c -0.675,0.676 -1.047,1.655 -1.047,2.6 0,1.182 0.777,2.565 1.587,3.375 2.025,2.026 3.848,3.073 6.786,3.073"
             id="path5055"
             style="fill:#ff0100;fill-opacity:1;fill-rule:nonzero;stroke:none" />
        </g>
        <g
           transform="translate(484.82539,750.8597)"
           id="g5057">
          <path
             d="m 0,0 c -2.97,-0.405 -6.313,-0.202 -9.115,-1.417 0,-0.338 0.709,-0.338 1.047,-0.541 C -4.726,-3.004 0,-1.417 2.296,-4.928 2.802,-6.346 2.633,-8.439 1.924,-9.486 0,-11.612 -3.14,-11.95 -5.941,-11.612 c -2.127,0.54 -4.22,1.587 -4.929,3.713 -0.169,0.878 0.169,1.553 0.709,2.093 1.553,1.215 3.68,0.945 5.772,0.709 1.081,-0.101 2.465,-0.709 3.005,-1.046 0,-0.54 0,-1.283 -2.465,-1.587 -1.586,-0.203 -3.848,1.924 -5.603,0.878 -0.371,-0.169 -0.371,-0.709 -0.203,-0.878 1.249,-1.418 3.512,-0.709 5.098,-0.709 1.755,0.337 4.05,0.709 4.928,1.924 -0.371,1.587 -1.924,1.587 -3.004,1.924 -2.633,0.54 -5.435,0.372 -8.068,0.878 -0.506,0.203 -0.877,0.878 -1.046,1.418 0,1.418 0.54,2.667 1.755,3.342 3.511,1.958 8.945,2.464 12.794,0.878 0.371,-0.372 0,-0.709 0,-1.047 C 2.127,0.169 1.081,0.135 0,0"
             id="path5059"
             style="fill:#ff0100;fill-opacity:1;fill-rule:nonzero;stroke:none" />
        </g>
        <g
           transform="translate(498.8002,740.2939)"
           id="g5061">
          <path
             d="m 0,0 c -0.337,-0.337 -1.012,-0.473 -1.417,-0.168 -2.6,2.126 -3.511,5.266 -5.266,7.898 L -6.852,7.19 -7.359,-0.168 c -0.203,-0.541 -0.54,-1.047 -0.877,-1.047 -0.71,0 -1.25,0.506 -1.587,1.047 -0.709,1.586 -0.168,3.678 -0.168,5.434 0.336,2.296 0.674,4.389 1.755,6.313 0.169,0.54 0.674,0.877 1.215,0.54 2.633,-2.464 4.051,-5.604 5.974,-8.237 0.507,0 0.17,0.507 0.338,0.675 0,3.714 -1.384,6.684 -1.924,10.026 0,0.338 -0.168,0.878 0.169,1.046 1.047,-0.168 1.587,-1.215 2.127,-1.755 C 1.756,10.903 2.633,7.19 2.296,3.342 1.925,2.126 1.418,0.54 0,0"
             id="path5063"
             style="fill:#ff0100;fill-opacity:1;fill-rule:nonzero;stroke:none" />
        </g>
        <g
           transform="translate(510.9857,750.6575)"
           id="g5065">
          <path
             d="m 0,0 -2.801,0 -0.709,-2.093 0.169,0 c 1.417,0 3.004,0.169 4.219,-0.372 0.371,-0.337 0.169,-1.046 0.169,-1.552 -0.675,-0.709 -1.924,-0.54 -2.971,-0.54 -0.877,-0.169 -2.498,0.338 -2.801,-0.878 l -0.541,-2.093 0,-0.203 c 2.127,0.203 4.22,1.081 6.313,0.709 0.371,-0.506 0.709,-1.215 0.54,-1.755 -2.296,-1.755 -4.928,-3.511 -8.067,-2.971 -1.25,0.507 -2.161,1.925 -2.296,3.342 -0.203,1.925 1.755,3.309 0.877,5.266 -0.168,0.507 0.54,0.507 0.709,0.675 0.877,0 0.877,1.081 1.215,1.588 l 0.371,1.046 c -1.046,0.371 -2.295,0.54 -2.632,1.958 0,0.337 0.709,0.168 0.877,0.337 2.97,0.337 5.976,1.046 8.946,0.878 C 2.633,2.801 3.68,1.924 3.511,0.709 2.633,0 1.249,0.169 0,0"
             id="path5067"
             style="fill:#ff0100;fill-opacity:1;fill-rule:nonzero;stroke:none" />
        </g>
        <g
           transform="translate(526.00771,749.44231)"
           id="g5069">
          <path
             d="m 0,0 c -1.215,-1.081 -2.094,-2.296 -2.971,-3.342 -0.878,-1.418 -1.755,-2.802 -2.464,-4.051 1.586,0 3.004,0.675 4.22,1.755 1.417,1.215 2.092,3.005 1.924,4.929 C 0.54,-0.54 0.54,0.169 0,0 m -5.267,-11.073 -2.092,-0.169 c -1.249,-3.882 -2.464,-7.899 -3.174,-12.118 -1.046,-0.169 -2.329,1.047 -2.801,2.093 -0.406,0.877 0,1.958 0,2.835 0.708,3.308 1.384,6.82 2.801,9.824 -0.168,0.709 -0.54,1.215 -0.709,1.924 -0.505,3.849 1.419,7.022 3.883,9.823 0.337,0.371 0.877,1.25 1.383,1.046 0.372,-3.138 -2.801,-5.266 -3.139,-8.404 0,-0.541 0,-0.878 0.169,-1.25 1.047,1.25 2.059,2.836 3.139,4.051 1.553,1.756 3.174,3.173 5.098,4.219 C 0,2.97 0.743,2.835 1.215,2.261 c 1.283,-1.552 1.924,-3.51 1.418,-5.603 -0.912,-3.68 -4.389,-7.022 -7.9,-7.731"
             id="path5071"
             style="fill:#ff0100;fill-opacity:1;fill-rule:nonzero;stroke:none" />
        </g>
        <g
           transform="translate(362.22211,737.44591)"
           id="g5073">
          <path
             d="m 0,0 c 0.785,1.785 0.799,3.747 -0.144,5.38 -1.737,3.009 -6.058,3.766 -9.652,1.691 -3.594,-2.075 -5.098,-6.194 -3.361,-9.204 1.456,-2.522 4.729,-3.461 7.866,-2.476 l 0.005,0.006 c -0.938,-1.612 -1.476,-3.486 -1.476,-5.485 0,-6.03 4.888,-10.918 10.918,-10.918 6.03,0 10.918,4.888 10.918,10.918 0,2.005 -0.541,3.881 -1.483,5.497 l 0.001,-0.006 c 3.149,-1.004 6.442,-0.068 7.904,2.464 1.737,3.01 0.232,7.129 -3.361,9.204 C 14.542,9.146 10.22,8.389 8.483,5.38 7.54,3.747 7.554,1.785 8.339,0 l 0,-0.001 C 7.05,0.534 5.638,0.83 4.156,0.83 2.682,0.83 1.276,0.537 -0.007,0.008 L 0,0 z"
             id="path5075"
             style="fill:#ff0100;fill-opacity:1;fill-rule:nonzero;stroke:none" />
        </g>
        <g
           transform="translate(416.8293,724.7119)"
           id="g5077">
          <path
             d="m 0,0 c -3.54,2.232 -7.233,3.187 -11.048,3.187 -3.69,0 -11.492,-2.032 -24.007,-9.242 -9.774,-5.63 -20.681,-8.392 -24.964,-8.392 -8.817,0 -15.085,4.567 -17.74,7.648 4.78,-2.018 6.479,-2.125 8.923,-2.125 2.484,0 5.618,0.938 9.334,2.542 3.77,-4.012 10.498,-4.728 15.052,-2.289 4.402,2.357 6.904,6.838 6.785,11.632 5.982,2.925 11.773,5.643 21.625,5.643 C -8.003,8.604 -2.616,3.364 0,0"
             id="path5079"
             style="fill:#022eb8;fill-opacity:1;fill-rule:nonzero;stroke:none" />
        </g>
        <g
           transform="translate(350.461,731.5235)"
           id="g5081">
          <path
             d="m 0,0 c -6.878,-3.005 -11.375,-4.475 -15.003,-4.475 -2.444,0 -4.143,0.106 -8.923,2.125 2.656,-3.081 8.923,-7.649 17.74,-7.649 2.08,0 5.588,0.715 9.902,2.029 -0.62,1.669 -0.799,4.55 -0.189,7.027 C 2.451,-0.861 0.943,-0.511 0,0"
             id="path5083"
             style="fill:#022eb8;fill-opacity:1;fill-rule:nonzero;stroke:none" />
        </g>
        <g
           transform="translate(383.6615,744.31351)"
           id="g5085">
          <path
             d="m 0,0 c 1.136,0.207 3.482,0.263 4.592,0.263 8.037,0 13.424,-5.241 16.041,-8.604 C 17.092,-6.11 13.4,-5.155 9.585,-5.155 8.108,-5.155 5.499,-5.744 2.666,-6.597 2.693,-4.093 1.508,-1.589 0,0"
             id="path5087"
             style="fill:#022eb8;fill-opacity:1;fill-rule:nonzero;stroke:none" />
        </g>
        <g
           transform="translate(391.7594,747.1259)"
           id="g5089">
          <path
             d="m 0,0 c -3.54,2.232 -7.233,3.187 -11.048,3.187 -3.03,0 -8.657,-1.246 -17.568,-5.73 -2.528,3.26 -7.626,3.973 -11.848,1.454 -3.792,-2.263 -5.433,-6.417 -4.631,-9.775 -6.106,-2.372 -12.152,-3.583 -14.924,-3.583 -8.817,0 -15.085,4.567 -17.74,7.648 4.78,-2.018 6.479,-2.125 8.923,-2.125 5.428,0 13.491,3.612 27.194,10.092 7.8,3.689 13.537,7.436 25.602,7.436 C -8.003,8.604 -2.616,3.364 0,0"
             id="path5091"
             style="fill:#022eb8;fill-opacity:1;fill-rule:nonzero;stroke:none" />
        </g>
        <path
           d="m 487.313,698.436 -3.365,0 0,23.613 3.365,0 0,-23.613 z"
           id="path5093"
           style="fill:#022eb8;fill-opacity:1;fill-rule:nonzero;stroke:none" />
        <g
           transform="translate(511.1725,700.85699)"
           id="g5095">
          <path
             d="m 0,0 0,3.697 4.776,0 0,3.018 -4.776,0 0,11.458 4.776,0 0,3.018 -8.14,0 0,-23.712 8.538,0 L 5.174,0 0,0 z"
             id="path5097"
             style="fill:#022eb8;fill-opacity:1;fill-rule:nonzero;stroke:none" />
        </g>
        <g
           transform="translate(579.1385,700.85699)"
           id="g5099">
          <path
             d="m 0,0 0,3.697 4.776,0 0,3.018 -4.776,0 0,11.458 4.776,0 0,3.018 -8.14,0 0,-23.712 8.538,0 L 5.174,0 0,0 z"
             id="path5101"
             style="fill:#022eb8;fill-opacity:1;fill-rule:nonzero;stroke:none" />
        </g>
        <path
           d="m 552.156,698.34 -3.365,0 0,23.708 3.365,0 0,-23.708 z"
           id="path5103"
           style="fill:#022eb8;fill-opacity:1;fill-rule:nonzero;stroke:none" />
        <g
           transform="translate(536.7476,701.2178)"
           id="g5105">
          <path
             d="m 0,0 0,27.869 -3.365,0 0,-30.747 9.975,0 L 6.61,0 0,0 z"
             id="path5107"
             style="fill:#022eb8;fill-opacity:1;fill-rule:nonzero;stroke:none" />
        </g>
        <g
           transform="translate(452.23421,704.5498)"
           id="g5109">
          <path
             d="M 0,0 -0.473,14.296 C 2.127,12.779 4.202,11.073 4.202,7.416 4.202,2.982 1.602,1.116 0,0 m 7.136,7.512 c 0,5.772 -5.965,10.006 -10.391,10.006 0,0 0.034,-0.049 0.092,-0.132 l 0,-23.5 3.365,0 -0.165,5.007 0.028,0.008 3.367,-5.051 3.079,0 c 0,0 -2.213,3.463 -3.319,5.195 0.914,1.107 3.944,2.694 3.944,8.467"
             id="path5111"
             style="fill:#022eb8;fill-opacity:1;fill-rule:nonzero;stroke:none" />
        </g>
        <g
           transform="translate(443.5354,729.8622)"
           id="g5113">
          <path
             d="m 0,0 c -6.91,-2.054 -12.677,-8.637 -12.677,-15.904 0,-6.547 5.008,-14.003 12.674,-15.74 l 0,2.862 c -3.986,1.737 -9.862,5.766 -9.862,12.878 0,7.267 6.594,11.438 9.865,12.869 L 0,0 z"
             id="path5115"
             style="fill:#022eb8;fill-opacity:1;fill-rule:nonzero;stroke:none" />
        </g>
        <g
           transform="translate(476.4552,703.74651)"
           id="g5117">
          <path
             d="m 0,0 c 0,-3.803 -2.417,-5.616 -5.642,-5.616 -3.281,0 -5.677,1.945 -5.677,5.636 l 0,18.281 3.363,0 0,-18.963 c 0,-1.284 1.03,-2.319 2.314,-2.319 1.284,0 2.278,1.041 2.278,2.325 l 0,18.957 3.364,0 L 0,0 z"
             id="path5119"
             style="fill:#022eb8;fill-opacity:1;fill-rule:nonzero;stroke:none" />
        </g>
        <g
           transform="translate(499.3497,722.63341)"
           id="g5121">
          <path
             d="m 0,0 c -2.737,-1.238 -6.538,-3.183 -6.538,-6.936 0,-4.932 5.855,-7.504 5.855,-11.314 0,-1.657 -2.299,-2.884 -5.23,-4.15 0.455,-0.909 1.365,-2.501 1.365,-2.501 3.482,1.709 6.822,3.265 6.822,6.396 0,5.867 -5.799,7.926 -5.799,11.483 0,2.844 2.73,3.821 4.661,4.634 C 0.966,-1.933 0,0 0,0"
             id="path5123"
             style="fill:#022eb8;fill-opacity:1;fill-rule:nonzero;stroke:none" />
        </g>
        <g
           transform="translate(566.66389,722.048)"
           id="g5125">
          <path
             d="m 0,0 0,-8.757 -8.302,9.637 0,-24.588 3.365,0 0,15.936 4.937,-5.524 0,-10.412 3.365,0 L 3.365,0 0,0 z"
             id="path5127"
             style="fill:#022eb8;fill-opacity:1;fill-rule:nonzero;stroke:none" />
        </g>
      </g>
    </g>
  </g>
</svg>
